# xmcd
#
# Track frame offsets:
#	183
#	8905
#	17195
#	28925
#	39948
#	50840
#	60443
#	68300
#	76995
#	93078
#	102583
#	115975
#	127653
#	147650
#	155773
#	166370
#	176885
#	189940
#	200918
#	213395
#	224423
#	237408
#	243000
#
# Disc length: 3426 seconds
#
# Revision: 0
# Processed by: cddbd v1.5.1PL2 Copyright (c) Steve Scherf et al.
# Submitted via: audiograbber 1.83.01
#
DISCID=450d6017
DTITLE=Jacques BREL - Grand Jacques
DYEAR=1963
DGENRE=Chanson
TTITLE0=La Haine
TTITLE1=Grand Jacques (C'est Trop Facile)
TTITLE2=Il Pleut (Les Carreaux)
TTITLE3=Le Diable (Ca Va)
TTITLE4=Il Nous Faut Regarder
TTITLE5=C'est Comme Ça
TTITLE6=Il Peut Pleuvoir
TTITLE7=Le Fou du Roi
TTITLE8=Sur la Place
TTITLE9=S'il Te Faut
TTITLE10=La Bastille
TTITLE11=Prière Païenne	
TTITLE12=L'Air de la Bêtise
TTITLE13=Qu'avons-nous fait,.bonnes gens
TTITLE14=Pardons
TTITLE15=Saint Pierre
TTITLE16=Les pieds dans le ruisseau
TTITLE17=Quand on a que l'amour
TTITLE18=J'en appelle
TTITLE19=La Bourrée du célibataire
TTITLE20=Heureux
TTITLE21=Les blés
TTITLE22=Demain l'on se marie
EXTD=
EXTT0=
EXTT1=
EXTT2=
EXTT3=
EXTT4=
EXTT5=
EXTT6=
EXTT7=
EXTT8=
EXTT9=
EXTT10=
EXTT11=
EXTT12=
EXTT13=
EXTT14=
EXTT15=
EXTT16=
EXTT17=
EXTT18=
EXTT19=
EXTT20=
EXTT21=
EXTT22=
PLAYORDER=
